<svg width="141" height="28" viewBox="0 0 141 28" fill="none" xmlns="http://www.w3.org/2000/svg">
<path d="M1.79 26.0949C0.598314 24.9799 0 23.5162 0 21.699H2.72208C2.72208 22.7868 3.07316 23.6695 3.77284 24.3444C4.47253 25.0194 5.39227 25.3556 6.53451 25.3556H9.9192C11.0342 25.3556 11.9416 25.1282 12.6413 24.6757C13.341 24.2233 13.6921 23.6324 13.6921 22.9055V21.5828C13.6921 21.0908 13.4967 20.6557 13.1086 20.2799C12.7204 19.904 12.2136 19.6519 11.593 19.5208L4.86565 18.3539C3.5182 18.1215 2.43529 17.6097 1.61693 16.8185C0.801047 16.0274 0.390626 15.1002 0.390626 14.0371V12.7539C0.390626 11.2507 0.961757 10.0392 2.10153 9.11704C3.24129 8.19731 4.74698 7.73746 6.61362 7.73746H9.95875C11.7735 7.73746 13.2396 8.24923 14.3547 9.2728C15.4697 10.2964 16.026 11.6512 16.026 13.3374H13.3039C13.2767 12.3781 12.9602 11.6067 12.352 11.0232C11.7413 10.4398 10.9452 10.148 9.96123 10.148H6.61608C5.57768 10.148 4.74945 10.3878 4.12641 10.8675C3.50337 11.3471 3.19184 11.9751 3.19184 12.7539V13.8813C3.19184 14.3733 3.40693 14.8159 3.83465 15.204C4.26238 15.5922 4.81372 15.8394 5.48868 15.9433L12.1789 17.1103C13.4745 17.3427 14.5178 17.8495 15.309 18.6283C16.1002 19.4071 16.4957 20.3392 16.4957 21.4295V22.9846C16.4957 24.4112 15.8925 25.5658 14.6884 26.446C13.4819 27.3286 11.8946 27.7687 9.92413 27.7687H6.53944C4.56895 27.7687 2.98663 27.2124 1.79494 26.0974L1.79 26.0949Z" fill="#DDDBE1"/>
<path d="M22.516 26.1345C21.621 25.2543 21.1735 23.8005 21.1735 21.7781V10.5387H17.7517V8.04896H21.1735V2.17706H23.9747V8.04896H29.0307V10.5387H23.9747V21.7781C23.9747 22.9204 24.2022 23.7362 24.6546 24.2282C25.107 24.7202 25.8661 24.9675 26.9292 24.9675H29.0282V27.4572H26.9292C24.8796 27.4572 23.4085 27.0171 22.516 26.1345Z" fill="#DDDBE1"/>
<path d="M33.4241 25.9391C32.3091 24.7203 31.7528 23.1256 31.7528 21.1551V8.04897H34.554V21.2342C34.554 22.4531 34.8507 23.4321 35.449 24.1714C36.0449 24.9106 36.8237 25.279 37.783 25.279H40.1935C41.3852 25.279 42.4879 24.7994 43.4991 23.8401C44.5103 22.8808 45.1581 21.6768 45.4449 20.223V8.04897H48.2461V27.4572H45.524V24.5002C44.9281 25.4348 44.137 26.2111 43.1505 26.8341C42.164 27.4572 41.2047 27.7687 40.2726 27.7687H37.783C35.9929 27.7687 34.5416 27.1605 33.4266 25.9416L33.4241 25.9391Z" fill="#DDDBE1"/>
<path d="M55.903 26.9701C54.9438 26.4386 54.2045 25.771 53.6853 24.9675V27.4572H50.9632V0.2313H53.7644V10.3433C54.3355 9.53982 55.0674 8.90441 55.9624 8.43713C56.8574 7.96985 57.7845 7.73746 58.7438 7.73746H61.5055C62.8282 7.73746 64.0001 8.04155 65.0261 8.65223C66.0497 9.26291 66.8532 10.1184 67.4367 11.2186C68.0202 12.3212 68.3119 13.5846 68.3119 15.0112V20.0277C68.3119 21.5581 68.0202 22.9055 67.4367 24.0725C66.8532 25.2394 66.0373 26.1468 64.9866 26.7946C63.9358 27.4423 62.7243 27.7662 61.3497 27.7662H58.6276C57.7722 27.7662 56.8648 27.4992 55.9055 26.9676L55.903 26.9701ZM61.2706 25.2765C62.5142 25.2765 63.5328 24.7895 64.324 23.8178C65.1151 22.8462 65.5107 21.5803 65.5107 20.0252V15.0087C65.5107 13.5822 65.1275 12.43 64.3635 11.5474C63.5996 10.6672 62.6205 10.2247 61.4263 10.2247H58.8205C57.473 10.2247 56.3184 10.7167 55.3591 11.7032C54.3998 12.6896 53.8683 13.9852 53.7644 15.5922V20.3367C53.8163 21.2441 54.076 22.0748 54.5432 22.8264C55.0105 23.578 55.6064 24.1739 56.3332 24.6164C57.0601 25.0565 57.8241 25.2765 58.6276 25.2765H61.2731H61.2706Z" fill="#DDDBE1"/>
<path d="M75.9714 26.9701C75.0121 26.4386 74.2729 25.771 73.7537 24.9675V27.4572H71.0316V0.2313H73.8328V10.3433C74.4014 9.53982 75.1357 8.90441 76.0307 8.43713C76.9257 7.96985 77.8529 7.73746 78.8121 7.73746H81.5738C82.8965 7.73746 84.0684 8.04155 85.0945 8.65223C86.118 9.26291 86.9216 10.1184 87.505 11.2186C88.0885 12.3212 88.3803 13.5846 88.3803 15.0112V20.0277C88.3803 21.5581 88.0885 22.9055 87.505 24.0725C86.9216 25.2394 86.1057 26.1468 85.0549 26.7946C84.0041 27.4423 82.7927 27.7662 81.418 27.7662H78.6959C77.8405 27.7662 76.9331 27.4992 75.9738 26.9676L75.9714 26.9701ZM81.3389 25.2765C82.585 25.2765 83.6011 24.7895 84.3923 23.8178C85.1835 22.8462 85.579 21.5803 85.579 20.0252V15.0087C85.579 13.5822 85.1958 12.43 84.4319 11.5474C83.6679 10.6672 82.6888 10.2247 81.4947 10.2247H78.8888C77.5413 10.2247 76.3867 10.7167 75.4274 11.7032C74.4682 12.6896 73.9366 13.9852 73.8328 15.5922V20.3367C73.8847 21.2441 74.1443 22.0748 74.6116 22.8264C75.0788 23.578 75.6747 24.1739 76.4016 24.6164C77.126 25.0565 77.8924 25.2765 78.6959 25.2765H81.3414H81.3389Z" fill="#DDDBE1"/>
<path d="M93.0852 25.7438C91.7625 24.3964 91.1024 22.6187 91.1024 20.4158V15.0878C91.1024 12.885 91.7699 11.1073 93.105 9.75986C94.4401 8.41242 96.2103 7.73746 98.4132 7.73746H101.603C103.805 7.73746 105.576 8.41242 106.911 9.75986C108.246 11.1073 108.913 12.885 108.913 15.0878V20.4158C108.913 22.6212 108.238 24.3964 106.891 25.7438C105.544 27.0913 103.754 27.7662 101.523 27.7662H98.3341C96.1559 27.7662 94.4055 27.0913 93.0827 25.7438H93.0852ZM101.523 25.2765C102.923 25.2765 104.038 24.829 104.869 23.934C105.699 23.039 106.112 21.8671 106.112 20.4134V15.0854C106.112 13.6341 105.697 12.4597 104.869 11.5647C104.038 10.6697 102.95 10.2222 101.603 10.2222H98.4132C97.0633 10.2222 95.9754 10.6697 95.1472 11.5647C94.3165 12.4597 93.9036 13.6316 93.9036 15.0854V20.4134C93.9036 21.8918 94.3041 23.0712 95.1101 23.9513C95.9136 24.834 96.9891 25.2741 98.339 25.2741H101.528L101.523 25.2765Z" fill="#DDDBE1"/>
<path d="M111.635 8.04897H114.358V11.043C114.877 10.1357 115.661 9.39642 116.711 8.8253C117.762 8.25418 118.857 7.96985 119.997 7.96985H121.708V10.4991H119.997C118.338 10.4991 116.996 11.0233 115.972 12.074C114.949 13.1248 114.437 14.5192 114.437 16.2548V27.4547H111.635V8.04651V8.04897Z" fill="#DDDBE1"/>
<path d="M124.43 8.04896H127.152V10.9268C127.748 9.99226 128.527 9.2283 129.486 8.63246C130.445 8.03661 131.405 7.73746 132.364 7.73746H135.009C136.799 7.73746 138.243 8.34812 139.346 9.56454C140.449 10.7834 141 12.3781 141 14.3486V27.4547H138.199V14.2695C138.199 13.0778 137.9 12.1037 137.304 11.3521C136.708 10.6005 135.917 10.2247 134.93 10.2247H132.441C131.222 10.2247 130.114 10.7043 129.115 11.6636C128.116 12.6229 127.488 13.8541 127.229 15.3573V27.4522H124.428V8.04403L124.43 8.04896Z" fill="#DDDBE1"/>
</svg>
